<svg width="34" height="33" viewBox="0 0 34 33" fill="none" xmlns="http://www.w3.org/2000/svg">
<g clip-path="url(#clip0_1_1513)">
<path fill-rule="evenodd" clip-rule="evenodd" d="M16.2206 30.4129C19.9848 30.4129 23.5949 28.9176 26.2566 26.256C28.9183 23.5943 30.4136 19.9844 30.4136 16.2202C30.4136 12.4561 28.9183 8.84612 26.2566 6.18448C23.5949 3.52283 19.9848 2.02753 16.2206 2.02753C12.4564 2.02753 8.84633 3.52283 6.18462 6.18448C3.52291 8.84612 2.02758 12.4561 2.02758 16.2202C2.02758 19.9844 3.52291 23.5943 6.18462 26.256C8.84633 28.9176 12.4564 30.4129 16.2206 30.4129ZM32.4412 16.2202C32.4412 20.5221 30.7323 24.6478 27.6903 27.6897C24.6483 30.7316 20.5226 32.4405 16.2206 32.4405C11.9186 32.4405 7.79286 30.7316 4.75091 27.6897C1.70895 24.6478 0 20.5221 0 16.2202C0 11.9184 1.70895 7.79268 4.75091 4.7508C7.79286 1.70891 11.9186 0 16.2206 0C20.5226 0 24.6483 1.70891 27.6903 4.7508C30.7323 7.79268 32.4412 11.9184 32.4412 16.2202Z" fill="#5800FF"/>
<path fill-rule="evenodd" clip-rule="evenodd" d="M16.6691 5.40674C16.4295 5.40674 16.1998 5.50733 16.0304 5.68639C15.861 5.86545 15.7659 6.1083 15.7659 6.36153V16.3104L9.89862 19.8546C9.69668 19.9834 9.5504 20.1906 9.49104 20.4319C9.43168 20.6732 9.46396 20.9294 9.58097 21.1459C9.69798 21.3624 9.89044 21.5218 10.1172 21.5903C10.344 21.6587 10.5871 21.6307 10.7946 21.5121L17.117 17.693C17.2553 17.6095 17.3702 17.4889 17.4501 17.3434C17.5301 17.1978 17.5722 17.0325 17.5723 16.8642V6.36153C17.5723 6.1083 17.4771 5.86545 17.3077 5.68639C17.1383 5.50733 16.9086 5.40674 16.6691 5.40674Z" fill="#5800FF"/>
</g>
<g clip-path="url(#clip1_1_1513)">
<path fill-rule="evenodd" clip-rule="evenodd" d="M28.1572 26.8061C28.2513 26.7119 28.3631 26.6371 28.4862 26.5861C28.6093 26.535 28.7412 26.5088 28.8744 26.5088C29.0076 26.5088 29.1396 26.535 29.2626 26.5861C29.3857 26.6371 29.4975 26.7119 29.5917 26.8061L33.4947 30.7091C33.685 30.8992 33.7919 31.1571 33.792 31.426C33.7921 31.6949 33.6853 31.9529 33.4953 32.1431C33.3052 32.3333 33.0473 32.4402 32.7784 32.4403C32.5094 32.4404 32.2515 32.3337 32.0613 32.1436L28.1582 28.2406C28.0639 28.1464 27.9891 28.0346 27.9381 27.9116C27.8871 27.7885 27.8608 27.6566 27.8608 27.5234C27.8608 27.3901 27.8871 27.2582 27.9381 27.1351C27.9891 27.0121 28.0639 26.9003 28.1582 26.8061H28.1572Z" fill="#5800FF"/>
<circle cx="24.3307" cy="23.2201" r="5.40687" fill="white"/>
<mask id="path-5-inside-1_1_1513" fill="white">
<path fill-rule="evenodd" clip-rule="evenodd" d="M24.1619 28.3854C24.8941 28.3854 25.6192 28.2412 26.2957 27.961C26.9722 27.6808 27.5868 27.2701 28.1046 26.7523C28.6224 26.2346 29.0331 25.6199 29.3133 24.9434C29.5935 24.2669 29.7377 23.5419 29.7377 22.8097C29.7377 22.0775 29.5935 21.3524 29.3133 20.676C29.0331 19.9995 28.6224 19.3848 28.1046 18.8671C27.5868 18.3493 26.9722 17.9386 26.2957 17.6584C25.6192 17.3782 24.8941 17.234 24.1619 17.234C22.6831 17.234 21.2648 17.8214 20.2192 18.8671C19.1735 19.9127 18.5861 21.3309 18.5861 22.8097C18.5861 24.2885 19.1735 25.7067 20.2192 26.7523C21.2648 27.798 22.6831 28.3854 24.1619 28.3854ZM30.7515 22.8097C30.7515 24.5573 30.0572 26.2334 28.8215 27.4691C27.5857 28.7049 25.9096 29.3992 24.1619 29.3992C22.4142 29.3992 20.7381 28.7049 19.5023 27.4691C18.2665 26.2334 17.5723 24.5573 17.5723 22.8097C17.5723 21.062 18.2665 19.386 19.5023 18.1502C20.7381 16.9145 22.4142 16.2202 24.1619 16.2202C25.9096 16.2202 27.5857 16.9145 28.8215 18.1502C30.0572 19.386 30.7515 21.062 30.7515 22.8097Z"/>
</mask>
<path fill-rule="evenodd" clip-rule="evenodd" d="M24.1619 28.3854C24.8941 28.3854 25.6192 28.2412 26.2957 27.961C26.9722 27.6808 27.5868 27.2701 28.1046 26.7523C28.6224 26.2346 29.0331 25.6199 29.3133 24.9434C29.5935 24.2669 29.7377 23.5419 29.7377 22.8097C29.7377 22.0775 29.5935 21.3524 29.3133 20.676C29.0331 19.9995 28.6224 19.3848 28.1046 18.8671C27.5868 18.3493 26.9722 17.9386 26.2957 17.6584C25.6192 17.3782 24.8941 17.234 24.1619 17.234C22.6831 17.234 21.2648 17.8214 20.2192 18.8671C19.1735 19.9127 18.5861 21.3309 18.5861 22.8097C18.5861 24.2885 19.1735 25.7067 20.2192 26.7523C21.2648 27.798 22.6831 28.3854 24.1619 28.3854ZM30.7515 22.8097C30.7515 24.5573 30.0572 26.2334 28.8215 27.4691C27.5857 28.7049 25.9096 29.3992 24.1619 29.3992C22.4142 29.3992 20.7381 28.7049 19.5023 27.4691C18.2665 26.2334 17.5723 24.5573 17.5723 22.8097C17.5723 21.062 18.2665 19.386 19.5023 18.1502C20.7381 16.9145 22.4142 16.2202 24.1619 16.2202C25.9096 16.2202 27.5857 16.9145 28.8215 18.1502C30.0572 19.386 30.7515 21.062 30.7515 22.8097Z" fill="#5800FF"/>
<path d="M24.1619 28.3854L24.1619 32.3854L24.1619 28.3854ZM24.1619 17.234L24.1619 13.234L24.1619 17.234ZM18.5861 22.8097H14.5861H18.5861ZM30.7515 22.8097H34.7515H30.7515ZM17.5723 22.8097H13.5723H17.5723ZM24.1619 16.2202L24.1619 12.2202L24.1619 16.2202ZM24.1619 32.3854C25.4194 32.3854 26.6646 32.1377 27.8264 31.6565L24.765 24.2654C24.5738 24.3446 24.3688 24.3854 24.1619 24.3854L24.1619 32.3854ZM27.8264 31.6565C28.9882 31.1753 30.0438 30.4699 30.933 29.5808L25.2762 23.9238C25.1299 24.0702 24.9562 24.1862 24.765 24.2654L27.8264 31.6565ZM30.933 29.5808C31.8222 28.6916 32.5276 27.636 33.0088 26.4742L25.6178 23.4127C25.5386 23.6038 25.4225 23.7775 25.2762 23.9238L30.933 29.5808ZM33.0088 26.4742C33.49 25.3124 33.7377 24.0672 33.7377 22.8097H25.7377C25.7377 23.0166 25.697 23.2215 25.6178 23.4127L33.0088 26.4742ZM33.7377 22.8097C33.7377 21.5522 33.49 20.307 33.0088 19.1452L25.6178 22.2067C25.697 22.3979 25.7377 22.6028 25.7377 22.8097H33.7377ZM33.0088 19.1452C32.5276 17.9834 31.8222 16.9278 30.933 16.0386L25.2762 21.6955C25.4225 21.8418 25.5386 22.0156 25.6178 22.2067L33.0088 19.1452ZM30.933 16.0386C30.0438 15.1494 28.9882 14.4441 27.8264 13.9629L24.765 21.3539C24.9562 21.4331 25.1299 21.5492 25.2762 21.6955L30.933 16.0386ZM27.8264 13.9629C26.6646 13.4817 25.4194 13.234 24.1619 13.234L24.1619 21.234C24.3688 21.234 24.5738 21.2747 24.765 21.3539L27.8264 13.9629ZM24.1619 13.234C21.6222 13.234 19.1866 14.2428 17.3908 16.0386L23.0476 21.6955C23.3431 21.4 23.7439 21.234 24.1619 21.234L24.1619 13.234ZM17.3908 16.0386C15.595 17.8344 14.5861 20.27 14.5861 22.8097H22.5861C22.5861 22.3918 22.7521 21.991 23.0476 21.6955L17.3908 16.0386ZM14.5861 22.8097C14.5861 25.3493 15.595 27.785 17.3908 29.5808L23.0476 23.9238C22.7521 23.6283 22.5861 23.2276 22.5861 22.8097H14.5861ZM17.3908 29.5808C19.1866 31.3765 21.6222 32.3854 24.1619 32.3854L24.1619 24.3854C23.7439 24.3854 23.3431 24.2194 23.0476 23.9238L17.3908 29.5808ZM26.7515 22.8097C26.7515 23.4964 26.4787 24.1551 25.9931 24.6407L31.6498 30.2976C33.6358 28.3117 34.7515 25.6182 34.7515 22.8097H26.7515ZM25.9931 24.6407C25.5074 25.1263 24.8487 25.3992 24.1619 25.3992V33.3992C26.9704 33.3992 29.6639 32.2835 31.6498 30.2976L25.9931 24.6407ZM24.1619 25.3992C23.475 25.3992 22.8164 25.1263 22.3307 24.6407L16.6739 30.2976C18.6599 32.2835 21.3534 33.3992 24.1619 33.3992V25.3992ZM22.3307 24.6407C21.8451 24.1551 21.5723 23.4964 21.5723 22.8097H13.5723C13.5723 25.6182 14.688 28.3117 16.6739 30.2976L22.3307 24.6407ZM21.5723 22.8097C21.5723 22.1229 21.8451 21.4643 22.3307 20.9787L16.6739 15.3218C14.688 17.3077 13.5723 20.0012 13.5723 22.8097H21.5723ZM22.3307 20.9787C22.8164 20.4931 23.475 20.2202 24.1619 20.2202L24.1619 12.2202C21.3534 12.2202 18.6599 13.3359 16.6739 15.3218L22.3307 20.9787ZM24.1619 20.2202C24.8487 20.2202 25.5074 20.4931 25.9931 20.9787L31.6498 15.3218C29.6639 13.3359 26.9704 12.2202 24.1619 12.2202L24.1619 20.2202ZM25.9931 20.9787C26.4787 21.4643 26.7515 22.1229 26.7515 22.8097H34.7515C34.7515 20.0012 33.6358 17.3077 31.6498 15.3218L25.9931 20.9787Z" fill="#5800FF" mask="url(#path-5-inside-1_1_1513)"/>
</g>
<defs>
<clipPath id="clip0_1_1513">
<rect width="32.4412" height="32.4405" fill="white"/>
</clipPath>
<clipPath id="clip1_1_1513">
<rect width="16.2206" height="16.2202" fill="white" transform="translate(17.5723 16.2202)"/>
</clipPath>
</defs>
</svg>
