<svg width="63" height="34" viewBox="0 0 63 34" fill="none" xmlns="http://www.w3.org/2000/svg">
<path fill-rule="evenodd" clip-rule="evenodd" d="M42.8679 34C42.8679 34 45.7258 34 45.7258 31.1667C45.7258 28.3333 42.8679 19.8333 31.4365 19.8333C20.005 19.8333 17.1472 28.3333 17.1472 31.1667C17.1472 34 20.005 34 20.005 34H42.8679ZM20.0679 31.1667H42.8051C42.8185 31.1651 42.8318 31.1632 42.8451 31.161L42.8679 31.1553C42.8622 30.4073 42.3907 28.237 40.696 26.282C39.1184 24.4488 36.3463 22.6667 31.4365 22.6667C26.5295 22.6667 23.7574 24.4517 22.177 26.282C20.4823 28.237 20.0079 30.4102 20.005 31.1553C20.026 31.1593 20.0469 31.1631 20.0679 31.1667ZM31.4365 14.1667C32.9524 14.1667 34.4062 13.5696 35.4781 12.5069C36.55 11.4442 37.1522 10.0029 37.1522 8.5C37.1522 6.99711 36.55 5.55577 35.4781 4.49306C34.4062 3.43036 32.9524 2.83333 31.4365 2.83333C29.9206 2.83333 28.4668 3.43036 27.3949 4.49306C26.323 5.55577 25.7208 6.99711 25.7208 8.5C25.7208 10.0029 26.323 11.4442 27.3949 12.5069C28.4668 13.5696 29.9206 14.1667 31.4365 14.1667ZM40.0101 8.5C40.0101 9.61624 39.7883 10.7215 39.3575 11.7528C38.9266 12.7841 38.2951 13.7211 37.4989 14.5104C36.7028 15.2997 35.7577 15.9258 34.7175 16.353C33.6773 16.7801 32.5624 17 31.4365 17C30.3106 17 29.1957 16.7801 28.1555 16.353C27.1153 15.9258 26.1702 15.2997 25.374 14.5104C24.5779 13.7211 23.9464 12.7841 23.5155 11.7528C23.0847 10.7215 22.8629 9.61624 22.8629 8.5C22.8629 6.24566 23.7662 4.08365 25.374 2.48959C26.9819 0.895533 29.1626 0 31.4365 0C33.7104 0 35.8911 0.895533 37.4989 2.48959C39.1068 4.08365 40.0101 6.24566 40.0101 8.5ZM19.8221 20.6267C18.6789 20.2698 17.5005 20.0352 16.307 19.9268C15.6363 19.8636 14.963 19.8324 14.2893 19.8333C2.85786 19.8333 0 28.3333 0 31.1667C0 33.0565 0.951668 34 2.85786 34H14.9066C14.4829 33.1155 14.2717 32.1457 14.2893 31.1667C14.2893 28.305 15.3667 25.381 17.4044 22.9387C18.0988 22.1057 18.9076 21.3265 19.8221 20.6267ZM14.0607 22.6667C9.29377 22.7233 6.58737 24.48 5.02984 26.282C3.32369 28.2483 2.85786 30.4272 2.85786 31.1667H11.4315C11.4315 28.2058 12.3545 25.2563 14.0607 22.6667ZM4.28679 9.91667C4.28679 7.66233 5.19008 5.50032 6.79794 3.90626C8.4058 2.3122 10.5865 1.41667 12.8604 1.41667C15.1342 1.41667 17.315 2.3122 18.9228 3.90626C20.5307 5.50032 21.434 7.66233 21.434 9.91667C21.434 12.171 20.5307 14.333 18.9228 15.9271C17.315 17.5211 15.1342 18.4167 12.8604 18.4167C10.5865 18.4167 8.4058 17.5211 6.79794 15.9271C5.19008 14.333 4.28679 12.171 4.28679 9.91667ZM12.8604 4.25C11.3445 4.25 9.89066 4.84702 8.81875 5.90973C7.74685 6.97243 7.14466 8.41377 7.14466 9.91667C7.14466 11.4196 7.74685 12.8609 8.81875 13.9236C9.89066 14.9863 11.3445 15.5833 12.8604 15.5833C14.3763 15.5833 15.8301 14.9863 16.902 13.9236C17.9739 12.8609 18.5761 11.4196 18.5761 9.91667C18.5761 8.41377 17.9739 6.97243 16.902 5.90973C15.8301 4.84702 14.3763 4.25 12.8604 4.25Z" fill="#5800FF"/>
<path fill-rule="evenodd" clip-rule="evenodd" d="M20.1321 34C20.1321 34 17.2742 34 17.2742 31.1667C17.2742 28.3333 20.1321 19.8333 31.5635 19.8333C42.995 19.8333 45.8528 28.3333 45.8528 31.1667C45.8528 34 42.995 34 42.995 34H20.1321ZM42.9321 31.1667H20.1949C20.1815 31.1651 20.1682 31.1632 20.1549 31.161L20.1321 31.1553C20.1378 30.4073 20.6093 28.237 22.304 26.282C23.8816 24.4488 26.6537 22.6667 31.5635 22.6667C36.4705 22.6667 39.2426 24.4517 40.823 26.282C42.5177 28.237 42.9921 30.4102 42.995 31.1553C42.974 31.1593 42.9531 31.1631 42.9321 31.1667ZM31.5635 14.1667C30.0476 14.1667 28.5938 13.5696 27.5219 12.5069C26.45 11.4442 25.8478 10.0029 25.8478 8.5C25.8478 6.99711 26.45 5.55577 27.5219 4.49306C28.5938 3.43036 30.0476 2.83333 31.5635 2.83333C33.0794 2.83333 34.5332 3.43036 35.6051 4.49306C36.677 5.55577 37.2792 6.99711 37.2792 8.5C37.2792 10.0029 36.677 11.4442 35.6051 12.5069C34.5332 13.5696 33.0794 14.1667 31.5635 14.1667ZM22.9899 8.5C22.9899 9.61624 23.2117 10.7215 23.6425 11.7528C24.0734 12.7841 24.7049 13.7211 25.5011 14.5104C26.2972 15.2997 27.2423 15.9258 28.2825 16.353C29.3227 16.7801 30.4376 17 31.5635 17C32.6894 17 33.8043 16.7801 34.8445 16.353C35.8847 15.9258 36.8298 15.2997 37.626 14.5104C38.4221 13.7211 39.0536 12.7841 39.4845 11.7528C39.9153 10.7215 40.1371 9.61624 40.1371 8.5C40.1371 6.24566 39.2338 4.08365 37.626 2.48959C36.0181 0.895533 33.8374 0 31.5635 0C29.2896 0 27.1089 0.895533 25.5011 2.48959C23.8932 4.08365 22.9899 6.24566 22.9899 8.5ZM43.1779 20.6267C44.3211 20.2698 45.4995 20.0352 46.693 19.9268C47.3637 19.8636 48.037 19.8324 48.7107 19.8333C60.1421 19.8333 63 28.3333 63 31.1667C63 33.0565 62.0483 34 60.1421 34H48.0934C48.5171 33.1155 48.7283 32.1457 48.7107 31.1667C48.7107 28.305 47.6333 25.381 45.5956 22.9387C44.9011 22.1057 44.0924 21.3265 43.1779 20.6267ZM48.9393 22.6667C53.7062 22.7233 56.4126 24.48 57.9702 26.282C59.6763 28.2483 60.1421 30.4272 60.1421 31.1667H51.5685C51.5685 28.2058 50.6455 25.2563 48.9393 22.6667ZM58.7132 9.91667C58.7132 7.66233 57.8099 5.50032 56.2021 3.90626C54.5942 2.3122 52.4135 1.41667 50.1396 1.41667C47.8658 1.41667 45.685 2.3122 44.0772 3.90626C42.4693 5.50032 41.566 7.66233 41.566 9.91667C41.566 12.171 42.4693 14.333 44.0772 15.9271C45.685 17.5211 47.8658 18.4167 50.1396 18.4167C52.4135 18.4167 54.5942 17.5211 56.2021 15.9271C57.8099 14.333 58.7132 12.171 58.7132 9.91667ZM50.1396 4.25C51.6555 4.25 53.1093 4.84702 54.1812 5.90973C55.2532 6.97243 55.8553 8.41377 55.8553 9.91667C55.8553 11.4196 55.2532 12.8609 54.1812 13.9236C53.1093 14.9863 51.6555 15.5833 50.1396 15.5833C48.6237 15.5833 47.1699 14.9863 46.098 13.9236C45.0261 12.8609 44.4239 11.4196 44.4239 9.91667C44.4239 8.41377 45.0261 6.97243 46.098 5.90973C47.1699 4.84702 48.6237 4.25 50.1396 4.25Z" fill="#5800FF"/>
</svg>
