<svg width="261" height="260" viewBox="0 0 261 260" fill="none" xmlns="http://www.w3.org/2000/svg">
<path d="M39.8727 142.337C-5.72734 124.737 0.376945 87.75 13.609 68.25C32.6089 40.25 67.8729 26.8365 77.8729 22.8365C87.8729 18.8365 127.373 6.83548 155.373 4.83728C187.165 2.56845 199.613 5.37975 209.907 7.70454L210.108 7.75C226.109 11.363 237.673 17.8373 246.873 35.8373C258.373 58.3373 257.373 82.8377 253.373 120.337C248.626 164.838 227.373 209.837 214.373 229.337C203.973 244.937 187.373 253.338 173.373 255.337C132.973 258.137 119.608 218.25 110.873 200.337C106.206 188.337 85.4727 159.937 39.8727 142.337Z" stroke="white" stroke-width="8"/>
<path d="M39.8727 142.337C-5.72734 124.737 0.376945 87.75 13.609 68.25C32.6089 40.25 67.8729 26.8365 77.8729 22.8365C87.8729 18.8365 127.373 6.83548 155.373 4.83728C187.165 2.56845 199.613 5.37975 209.907 7.70454L210.108 7.75C226.109 11.363 237.673 17.8373 246.873 35.8373C258.373 58.3373 257.373 82.8377 253.373 120.337C248.626 164.838 227.373 209.837 214.373 229.337C203.973 244.937 187.373 253.338 173.373 255.337C132.973 258.137 119.608 218.25 110.873 200.337C106.206 188.337 85.4727 159.937 39.8727 142.337Z" stroke="#5800FF" stroke-width="8"/>
</svg>
