<svg width="56" height="56" viewBox="0 0 56 56" fill="none" xmlns="http://www.w3.org/2000/svg">
<g clip-path="url(#clip0_1_1948)">
<path fill-rule="evenodd" clip-rule="evenodd" d="M40.7812 15.4375H4.21875C3.84579 15.4375 3.4881 15.5857 3.22438 15.8494C2.96066 16.1131 2.8125 16.4708 2.8125 16.8438V42.1562C2.8125 42.5292 2.96066 42.8869 3.22438 43.1506C3.4881 43.4143 3.84579 43.5625 4.21875 43.5625H40.7812C41.1542 43.5625 41.5119 43.4143 41.7756 43.1506C42.0393 42.8869 42.1875 42.5292 42.1875 42.1562V16.8438C42.1875 16.4708 42.0393 16.1131 41.7756 15.8494C41.5119 15.5857 41.1542 15.4375 40.7812 15.4375ZM4.21875 12.625C3.09987 12.625 2.02681 13.0695 1.23564 13.8606C0.444474 14.6518 0 15.7249 0 16.8438L0 42.1562C0 43.2751 0.444474 44.3482 1.23564 45.1394C2.02681 45.9305 3.09987 46.375 4.21875 46.375H40.7812C41.9001 46.375 42.9732 45.9305 43.7644 45.1394C44.5555 44.3482 45 43.2751 45 42.1562V16.8438C45 15.7249 44.5555 14.6518 43.7644 13.8606C42.9732 13.0695 41.9001 12.625 40.7812 12.625H4.21875Z" fill="#5800FF"/>
<path fill-rule="evenodd" clip-rule="evenodd" d="M19.6873 22.4686C19.6873 22.0956 19.8355 21.7379 20.0992 21.4742C20.3629 21.2105 20.7206 21.0623 21.0936 21.0623H35.1561C35.529 21.0623 35.8867 21.2105 36.1504 21.4742C36.4142 21.7379 36.5623 22.0956 36.5623 22.4686C36.5623 22.8415 36.4142 23.1992 36.1504 23.4629C35.8867 23.7267 35.529 23.8748 35.1561 23.8748H21.0936C20.7206 23.8748 20.3629 23.7267 20.0992 23.4629C19.8355 23.1992 19.6873 22.8415 19.6873 22.4686ZM15.4798 20.0667C15.6108 20.1973 15.7147 20.3525 15.7856 20.5234C15.8565 20.6942 15.893 20.8774 15.893 21.0623C15.893 21.2473 15.8565 21.4305 15.7856 21.6013C15.7147 21.7721 15.6108 21.9273 15.4798 22.058L11.2611 26.2767C11.1304 26.4077 10.9753 26.5116 10.8044 26.5825C10.6336 26.6534 10.4504 26.6898 10.2654 26.6898C10.0805 26.6898 9.89732 26.6534 9.72648 26.5825C9.55563 26.5116 9.40045 26.4077 9.26982 26.2767L7.86357 24.8705C7.73283 24.7397 7.62911 24.5845 7.55835 24.4137C7.48759 24.2428 7.45117 24.0597 7.45117 23.8748C7.45117 23.5014 7.59952 23.1433 7.86357 22.8792C8.12763 22.6151 8.48577 22.4668 8.8592 22.4668C9.23263 22.4668 9.59077 22.6151 9.85482 22.8792L10.2654 23.2926L13.4886 20.0667C13.6192 19.9357 13.7744 19.8318 13.9452 19.7609C14.1161 19.6901 14.2992 19.6536 14.4842 19.6536C14.6692 19.6536 14.8523 19.6901 15.0232 19.7609C15.194 19.8318 15.3492 19.9357 15.4798 20.0667ZM19.6873 33.7186C19.6873 33.3456 19.8355 32.9879 20.0992 32.7242C20.3629 32.4605 20.7206 32.3123 21.0936 32.3123H35.1561C35.529 32.3123 35.8867 32.4605 36.1504 32.7242C36.4142 32.9879 36.5623 33.3456 36.5623 33.7186C36.5623 34.0915 36.4142 34.4492 36.1504 34.7129C35.8867 34.9767 35.529 35.1248 35.1561 35.1248H21.0936C20.7206 35.1248 20.3629 34.9767 20.0992 34.7129C19.8355 34.4492 19.6873 34.0915 19.6873 33.7186ZM15.4798 31.3167C15.6108 31.4473 15.7147 31.6025 15.7856 31.7734C15.8565 31.9442 15.893 32.1274 15.893 32.3123C15.893 32.4973 15.8565 32.6805 15.7856 32.8513C15.7147 33.0221 15.6108 33.1773 15.4798 33.308L11.2611 37.5267C11.1304 37.6577 10.9753 37.7616 10.8044 37.8325C10.6336 37.9034 10.4504 37.9398 10.2654 37.9398C10.0805 37.9398 9.89732 37.9034 9.72648 37.8325C9.55563 37.7616 9.40045 37.6577 9.26982 37.5267L7.86357 36.1205C7.73283 35.9897 7.62911 35.8345 7.55835 35.6637C7.48759 35.4928 7.45117 35.3097 7.45117 35.1248C7.45117 34.9399 7.48759 34.7568 7.55835 34.586C7.62911 34.4152 7.73283 34.26 7.86357 34.1292C7.99432 33.9985 8.14954 33.8947 8.32037 33.824C8.4912 33.7532 8.67429 33.7168 8.8592 33.7168C9.0441 33.7168 9.2272 33.7532 9.39803 33.824C9.56886 33.8947 9.72408 33.9985 9.85482 34.1292L10.2654 34.5426L13.4886 31.3167C13.6192 31.1857 13.7744 31.0818 13.9452 31.011C14.1161 30.9401 14.2992 30.9036 14.4842 30.9036C14.6692 30.9036 14.8523 30.9401 15.0232 31.011C15.194 31.0818 15.3492 31.1857 15.4798 31.3167Z" fill="#5800FF"/>
<rect y="9.75513" width="45" height="5.5102" fill="#5800FF"/>
</g>
<defs>
<clipPath id="clip0_1_1948">
<rect width="45" height="45" fill="white" transform="translate(0 7)"/>
</clipPath>
</defs>
</svg>
