<svg width="34" height="34" viewBox="0 0 34 34" fill="none" xmlns="http://www.w3.org/2000/svg">
<g clip-path="url(#clip0_1_1492)">
<path fill-rule="evenodd" clip-rule="evenodd" d="M25.5 2.125H8.5C7.93641 2.125 7.39591 2.34888 6.9974 2.7474C6.59888 3.14591 6.375 3.68641 6.375 4.25V27.1044C6.375 27.1044 8.5 23.375 17 23.375C25.5 23.375 27.625 27.1044 27.625 27.1044V4.25C27.625 3.68641 27.4011 3.14591 27.0026 2.7474C26.6041 2.34888 26.0636 2.125 25.5 2.125ZM8.5 0C7.37283 0 6.29183 0.447767 5.4948 1.2448C4.69777 2.04183 4.25 3.12283 4.25 4.25V29.75C4.25 30.8772 4.69777 31.9582 5.4948 32.7552C6.29183 33.5522 7.37283 34 8.5 34H25.5C26.6272 34 27.7082 33.5522 28.5052 32.7552C29.3022 31.9582 29.75 30.8772 29.75 29.75V4.25C29.75 3.12283 29.3022 2.04183 28.5052 1.2448C27.7082 0.447767 26.6272 0 25.5 0L8.5 0Z" fill="#5800FF"/>
<path fill-rule="evenodd" clip-rule="evenodd" d="M17 21.25C17.8372 21.25 18.6662 21.0851 19.4396 20.7647C20.2131 20.4444 20.9158 19.9748 21.5078 19.3828C22.0998 18.7908 22.5694 18.0881 22.8897 17.3146C23.2101 16.5412 23.375 15.7122 23.375 14.875C23.375 14.0378 23.2101 13.2088 22.8897 12.4354C22.5694 11.6619 22.0998 10.9592 21.5078 10.3672C20.9158 9.77522 20.2131 9.30564 19.4396 8.98527C18.6662 8.66489 17.8372 8.5 17 8.5C15.3092 8.5 13.6877 9.17165 12.4922 10.3672C11.2967 11.5627 10.625 13.1842 10.625 14.875C10.625 16.5658 11.2967 18.1873 12.4922 19.3828C13.6877 20.5784 15.3092 21.25 17 21.25Z" fill="#5800FF"/>
</g>
<defs>
<clipPath id="clip0_1_1492">
<rect width="34" height="34" fill="white"/>
</clipPath>
</defs>
</svg>
