<svg width="48" height="41" viewBox="0 0 48 41" fill="none" xmlns="http://www.w3.org/2000/svg">
<path d="M12 25.625H6C4.34315 25.625 3 26.7723 3 28.1875V35.875C3 37.2902 4.34315 38.4375 6 38.4375H12C13.6569 38.4375 15 37.2902 15 35.875V28.1875C15 26.7723 13.6569 25.625 12 25.625Z" fill="#5800FF"/>
<path d="M27 15.375H21C19.3431 15.375 18 16.5223 18 17.9375V35.875C18 37.2902 19.3431 38.4375 21 38.4375H27C28.6569 38.4375 30 37.2902 30 35.875V17.9375C30 16.5223 28.6569 15.375 27 15.375Z" fill="#5800FF"/>
<path d="M42 2.5625H36C34.3431 2.5625 33 3.70977 33 5.125V35.875C33 37.2902 34.3431 38.4375 36 38.4375H42C43.6569 38.4375 45 37.2902 45 35.875V5.125C45 3.70977 43.6569 2.5625 42 2.5625Z" fill="#5800FF"/>
</svg>
