<svg width="34" height="34" viewBox="0 0 34 34" fill="none" xmlns="http://www.w3.org/2000/svg">
<g clip-path="url(#clip0_1_1505)">
<path fill-rule="evenodd" clip-rule="evenodd" d="M24.8931 8.50014C24.8931 8.01707 25.085 7.55378 25.4266 7.21219C25.7682 6.87061 26.2315 6.67871 26.7146 6.67871H30.3574C30.8405 6.67871 31.3038 6.87061 31.6454 7.21219C31.9869 7.55378 32.1789 8.01707 32.1789 8.50014V30.3573H33.0896C33.3311 30.3573 33.5627 30.4532 33.7335 30.624C33.9043 30.7948 34.0003 31.0265 34.0003 31.268C34.0003 31.5095 33.9043 31.7412 33.7335 31.912C33.5627 32.0828 33.3311 32.1787 33.0896 32.1787H5.76814C5.5266 32.1787 5.29496 32.0828 5.12416 31.912C4.95337 31.7412 4.85742 31.5095 4.85742 31.268C4.85742 31.0265 4.95337 30.7948 5.12416 30.624C5.29496 30.4532 5.5266 30.3573 5.76814 30.3573H6.67885V24.893C6.67885 24.4099 6.87075 23.9466 7.21233 23.6051C7.55392 23.2635 8.01721 23.0716 8.50028 23.0716H12.1431C12.6262 23.0716 13.0895 23.2635 13.4311 23.6051C13.7727 23.9466 13.9646 24.4099 13.9646 24.893V30.3573H15.786V17.6073C15.786 17.1242 15.9779 16.6609 16.3195 16.3193C16.6611 15.9778 17.1243 15.7859 17.6074 15.7859H21.2503C21.7334 15.7859 22.1966 15.9778 22.5382 16.3193C22.8798 16.6609 23.0717 17.1242 23.0717 17.6073V30.3573H24.8931V8.50014ZM26.7146 30.3573H30.3574V8.50014H26.7146V30.3573ZM21.2503 30.3573V17.6073H17.6074V30.3573H21.2503ZM12.1431 30.3573V24.893H8.50028V30.3573H12.1431Z" fill="#5800FF"/>
</g>
<path fill-rule="evenodd" clip-rule="evenodd" d="M16.9999 3.03561C16.9999 2.87459 16.936 2.72016 16.8221 2.60629C16.7082 2.49243 16.5538 2.42847 16.3928 2.42847H9.10707C8.94605 2.42847 8.79162 2.49243 8.67776 2.60629C8.5639 2.72016 8.49993 2.87459 8.49993 3.03561C8.49993 3.19663 8.5639 3.35106 8.67776 3.46492C8.79162 3.57879 8.94605 3.64275 9.10707 3.64275H14.9271L2.60579 15.9629C2.54934 16.0193 2.50456 16.0864 2.47401 16.1601C2.44346 16.2339 2.42773 16.3129 2.42773 16.3928C2.42773 16.4726 2.44346 16.5516 2.47401 16.6254C2.50456 16.6991 2.54934 16.7662 2.60579 16.8226C2.66224 16.8791 2.72925 16.9238 2.80301 16.9544C2.87676 16.9849 2.95581 17.0007 3.03564 17.0007C3.11548 17.0007 3.19453 16.9849 3.26828 16.9544C3.34204 16.9238 3.40905 16.8791 3.4655 16.8226L15.7856 4.50125V10.3213C15.7856 10.4823 15.8496 10.6368 15.9635 10.7506C16.0773 10.8645 16.2318 10.9285 16.3928 10.9285C16.5538 10.9285 16.7082 10.8645 16.8221 10.7506C16.936 10.6368 16.9999 10.4823 16.9999 10.3213V3.03561Z" fill="#5800FF"/>
<defs>
<clipPath id="clip0_1_1505">
<rect width="29.1429" height="29.1429" fill="white" transform="translate(4.85742 4.85718)"/>
</clipPath>
</defs>
</svg>
