<svg width="35" height="34" viewBox="0 0 35 34" fill="none" xmlns="http://www.w3.org/2000/svg">
<g clip-path="url(#clip0_1_1501)">
<path fill-rule="evenodd" clip-rule="evenodd" d="M0 16.9993C0 12.4906 1.84374 8.16657 5.12563 4.97845C8.40752 1.79033 12.8587 -0.000732422 17.5 -0.000732422C22.1413 -0.000732422 26.5925 1.79033 29.8744 4.97845C33.1563 8.16657 35 12.4906 35 16.9993C35 21.5079 33.1563 25.832 29.8744 29.0201C26.5925 32.2082 22.1413 33.9993 17.5 33.9993C12.8587 33.9993 8.40752 32.2082 5.12563 29.0201C1.84374 25.832 0 21.5079 0 16.9993ZM16.4062 2.28789C14.9406 2.72139 13.4859 4.03039 12.2784 6.22977C11.9656 6.79927 11.6747 7.41977 11.4144 8.08277C12.9566 8.41639 14.6344 8.62889 16.4062 8.69264V2.28789ZM9.29469 7.51964C8.39479 7.23877 7.51863 6.89065 6.67406 6.47839C8.09906 5.09441 9.79089 3.99683 11.6528 3.24839C11.162 3.87244 10.7252 4.53487 10.3469 5.22889C9.94474 5.96963 9.59396 6.73563 9.29688 7.52177L9.29469 7.51964ZM7.67594 15.9368H2.22469C2.42837 13.11 3.46322 10.3995 5.20625 8.12739C6.23438 8.67564 7.38281 9.15164 8.62969 9.54477C8.06251 11.6333 7.7418 13.7778 7.67375 15.9368H7.67594ZM10.7384 10.1121C12.5059 10.5095 14.4156 10.7518 16.4062 10.8176V15.9368H9.86563C9.94219 13.8394 10.2506 11.8695 10.7384 10.1121ZM18.5938 10.8155V15.9368H25.1344C25.0693 13.9696 24.7766 12.0157 24.2616 10.1121C22.4941 10.5095 20.5844 10.7518 18.5938 10.8176V10.8155ZM9.86563 18.0618H16.4062V23.1809C14.4156 23.2446 12.5059 23.489 10.7384 23.8864C10.2227 21.9829 9.9292 20.0291 9.86344 18.0618H9.86563ZM18.5938 18.0618V23.1809C20.5844 23.2446 22.4941 23.489 24.2616 23.8864C24.7494 22.129 25.0578 20.1591 25.1366 18.0618H18.5938ZM11.4144 25.9158C13.0558 25.5661 14.7267 25.3627 16.4062 25.308V31.7128C14.9406 31.2793 13.4859 29.9703 12.2784 27.7709C11.9515 27.1711 11.6629 26.5522 11.4144 25.9179V25.9158ZM11.655 30.7523C11.1633 30.1276 10.7258 29.4645 10.3469 28.7696C9.94398 28.029 9.59247 27.263 9.29469 26.4768C8.39482 26.7577 7.51866 27.1058 6.67406 27.518C8.09867 28.9035 9.79052 30.0026 11.6528 30.7523H11.655ZM8.62969 24.4538C7.44541 24.8211 6.29924 25.2957 5.20625 25.8711C3.4639 23.5988 2.4298 20.8883 2.22688 18.0618H7.67375C7.74104 20.2208 8.06176 22.3654 8.62969 24.4538ZM23.3472 30.7523C25.2085 30.003 26.8996 28.9047 28.3237 27.5201C27.4799 27.108 26.6044 26.7599 25.7053 26.4789C25.4074 27.2644 25.0559 28.0296 24.6531 28.7696C24.275 29.4645 23.8382 30.1276 23.3472 30.7523ZM18.5938 25.3059C20.3656 25.3696 22.0434 25.5821 23.5856 25.9158C23.3231 26.5788 23.0344 27.1993 22.7216 27.7688C21.5141 29.9681 20.0572 31.275 18.5938 31.7106V25.308V25.3059ZM26.3703 24.4538C27.6172 24.8469 28.7656 25.3229 29.7937 25.8711C31.5361 23.5988 32.5702 20.8883 32.7731 18.0618H27.3263C27.259 20.2208 26.9382 22.3654 26.3703 24.4538ZM32.7731 15.9368H27.3263C27.2589 13.7777 26.9382 11.6332 26.3703 9.54477C27.5544 9.17692 28.7005 8.7024 29.7937 8.12739C31.5361 10.3997 32.5702 13.1102 32.7731 15.9368ZM24.6531 5.22889C25.0403 5.93864 25.3947 6.70364 25.7075 7.51964C26.6059 7.2386 27.4806 6.89048 28.3237 6.47839C26.8994 5.09464 25.2083 3.99707 23.3472 3.24839C23.8241 3.84977 24.2616 4.51702 24.6531 5.22889ZM23.5856 8.08277C22.0434 8.41639 20.3634 8.62889 18.5938 8.69264V2.28789C20.0594 2.72139 21.5141 4.03039 22.7216 6.22977C23.0344 6.79927 23.3253 7.41977 23.5856 8.08277Z" fill="#4C35C6"/>
</g>
<defs>
<clipPath id="clip0_1_1501">
<rect width="35" height="34" fill="white"/>
</clipPath>
</defs>
</svg>
