<svg width="56" height="56" viewBox="0 0 56 56" fill="none" xmlns="http://www.w3.org/2000/svg">
<path fill-rule="evenodd" clip-rule="evenodd" d="M47.8125 14H3.1875V42H47.8125V14ZM3.1875 10.5C2.34212 10.5 1.53137 10.8687 0.933597 11.5251C0.335825 12.1815 0 13.0717 0 14L0 42C0 42.9283 0.335825 43.8185 0.933597 44.4749C1.53137 45.1312 2.34212 45.5 3.1875 45.5H47.8125C48.6579 45.5 49.4686 45.1312 50.0664 44.4749C50.6642 43.8185 51 42.9283 51 42V14C51 13.0717 50.6642 12.1815 50.0664 11.5251C49.4686 10.8687 48.6579 10.5 47.8125 10.5H3.1875Z" fill="#4C35C6"/>
<path d="M41.5714 14.5C41.5714 16.3565 42.2487 18.137 43.4543 19.4497C44.6599 20.7625 46.295 21.5 48 21.5V14.5H41.5714ZM9.42857 14.5C9.42857 16.3565 8.75128 18.137 7.54569 19.4497C6.3401 20.7625 4.70496 21.5 3 21.5V14.5H9.42857ZM41.5714 42.5C41.5714 40.6435 42.2487 38.863 43.4543 37.5503C44.6599 36.2375 46.295 35.5 48 35.5V42.5H41.5714ZM9.42857 42.5C9.42857 40.6435 8.75128 38.863 7.54569 37.5503C6.3401 36.2375 4.70496 35.5 3 35.5V42.5H9.42857ZM31.9286 28.5C31.9286 30.3565 31.2513 32.137 30.0457 33.4497C28.8401 34.7625 27.205 35.5 25.5 35.5C23.795 35.5 22.1599 34.7625 20.9543 33.4497C19.7487 32.137 19.0714 30.3565 19.0714 28.5C19.0714 26.6435 19.7487 24.863 20.9543 23.5503C22.1599 22.2375 23.795 21.5 25.5 21.5C27.205 21.5 28.8401 22.2375 30.0457 23.5503C31.2513 24.863 31.9286 26.6435 31.9286 28.5Z" fill="#5800FF"/>
</svg>
