<svg width="178" height="59" viewBox="0 0 178 59" fill="none" xmlns="http://www.w3.org/2000/svg">
<g id="logotipo_ind">
<g id="Group">
<path id="Vector" d="M62.2993 35.6013C62.4729 35.3874 62.6333 35.1601 62.7802 34.9328L67.1624 35.3071C68.0175 33.6494 68.6053 31.858 68.8993 29.9463L65.145 27.6736C65.145 27.5399 65.145 26.9918 65.145 26.8581L68.8993 24.5854C68.6053 22.687 68.0041 20.8823 67.1624 19.2245L62.7802 19.5989C62.6199 19.3716 62.4596 19.1577 62.2993 18.9304L64.0094 14.8797C62.6867 13.5428 61.1503 12.4198 59.4535 11.5642L56.1268 14.4385C55.8729 14.3449 55.6057 14.2647 55.3385 14.1845L54.3365 9.90651C53.4146 9.75945 49.6203 9.75945 48.6984 9.90651L47.6964 14.1845C47.4292 14.2647 47.1753 14.3449 46.9081 14.4385L43.5814 11.5642C41.8846 12.4198 40.3482 13.5428 39.0255 14.8797L40.7356 18.9304C40.562 19.1443 40.4016 19.3716 40.2547 19.5989L39.1992 19.5053L40.7223 23.0614H43.1672C44.7037 19.9999 47.8701 17.9144 51.5308 17.9144C56.7013 17.9144 60.8964 22.1122 60.8964 27.2859C60.8964 32.4596 56.7013 36.6574 51.5308 36.6574C49.2996 36.6574 47.2689 35.882 45.6656 34.5852L50.0211 44.7455C51.5174 44.799 53.6952 44.7589 54.3498 44.6519L55.3519 40.3739C55.6191 40.2937 55.8729 40.2135 56.1401 40.1199L59.4669 42.9942C61.1636 42.1386 62.7001 41.0156 64.0227 39.6787L62.3126 35.628L62.2993 35.6013Z" fill="#1C1F3E"/>
<path id="Vector_2" d="M17.3818 9.46492C21.0426 9.46492 24.1956 11.5638 25.7454 14.6119H30.5551L32.1183 10.8553L28.6446 11.1494C28.4843 10.9221 28.3239 10.6948 28.1636 10.4809L29.8737 6.43022C28.5511 5.09334 27.0146 3.97037 25.3179 3.11477L21.9911 5.98905C21.7373 5.89547 21.4701 5.81525 21.2029 5.73504L20.2009 1.45704C19.279 1.30998 15.4846 1.30998 14.5628 1.45704L13.5608 5.73504C13.2936 5.81525 13.0397 5.89547 12.7725 5.98905L9.44577 3.11477C7.749 3.97037 6.21256 5.09334 4.88989 6.43022L6.60001 10.4809C6.42633 10.6948 6.26601 10.9221 6.11904 11.1494L1.73685 10.7751C0.881783 12.4328 0.293928 14.2376 0 16.1359L3.75426 18.4086C3.75426 18.5423 3.75426 19.0904 3.75426 19.2241L0 21.4968C0.293928 23.3952 0.895144 25.1999 1.73685 26.8577L6.11904 26.4833C6.27937 26.7106 6.43969 26.9379 6.60001 27.1518L4.88989 31.2025C6.21256 32.5394 7.749 33.6624 9.44577 34.518L12.7725 31.6437C13.0263 31.7373 13.2936 31.8175 13.5608 31.8977L14.5628 36.1757C15.4846 36.3228 19.279 36.3228 20.2009 36.1757L21.2029 31.8977C21.4701 31.8175 21.7239 31.7373 21.9911 31.6437L23.0733 32.5795L27.0547 23.0208H25.7454C24.209 26.0823 21.0426 28.1678 17.3818 28.1678C12.2114 28.1678 8.01621 23.97 8.01621 18.7963C8.01621 13.6226 12.2114 9.42482 17.3818 9.42482" fill="#1C1F3E"/>
<path id="Vector_3" d="M53.6819 57.3521L52.8536 51.1891L52.9738 51.1356C53.575 50.895 53.8689 50.2265 53.6285 49.625L39.5466 13.6764L39.6535 13.4892C41.0296 10.9224 39.4398 8.83689 36.0997 8.83689C35.4717 8.83689 34.9507 8.32887 34.9507 7.68717V2.04556C34.9507 0.922585 34.0288 -0.0132273 32.9065 0.000141486C31.7843 0.0135102 30.9426 0.909217 30.9426 1.99209V7.68717C30.9426 8.31551 30.4349 8.83689 29.7936 8.83689C26.4669 8.83689 24.8636 10.9358 26.2397 13.4892L26.3466 13.6764L12.2648 49.625C12.0243 50.2265 12.3316 50.9084 12.9195 51.1356L12.0778 57.3788L15.8988 52.3121L16.3264 52.4859C16.9276 52.7265 17.6089 52.419 17.8361 51.8308L22.9664 38.7562C23.2203 38.1011 23.8482 37.6733 24.5563 37.6733H31.5572V39.3043C31.5572 40.0663 32.1717 40.6946 32.9466 40.6946C33.7082 40.6946 34.3361 40.0797 34.3361 39.3043V37.6733H41.3369C42.045 37.6733 42.673 38.1011 42.9268 38.7562L48.0572 51.8308C48.2977 52.4324 48.9657 52.7265 49.5669 52.4859L49.8742 52.3655L53.6953 57.4457V57.3655L53.6819 57.3521ZM34.3495 36.1225V34.4915C34.3495 33.7295 33.7349 33.1012 32.96 33.1012C32.1985 33.1012 31.5705 33.7161 31.5705 34.4915V36.1225H26.5203C25.3179 36.1225 24.4895 34.906 24.9304 33.783L30.1009 20.588L30.4482 21.2431C31.143 22.5265 32.0515 23.1682 32.96 23.1682C33.8685 23.1682 34.777 22.5265 35.4717 21.2431L35.8191 20.588L40.9896 33.783C41.4305 34.906 40.6021 36.1225 39.3997 36.1225H34.3495Z" fill="#F2F2F2"/>
</g>
<g id="Group_2">
<path id="Vector_4" d="M89.982 47.2051H80.9637V0H89.982V47.2051Z" fill="#1C1F3E"/>
<path id="Vector_5" d="M123.517 30.8952L123.249 19.9595V0H132V47.2051H123.517L102.447 16.3099L102.714 27.2455V47.2051H93.9634V0H102.447L123.517 30.8952Z" fill="#1C1F3E"/>
<path id="Vector_6" d="M177.132 23.6092C177.132 27.192 176.611 30.4273 175.568 33.3283C174.526 36.2293 173.017 38.7025 171.026 40.748C169.035 42.8067 166.604 44.3976 163.731 45.5206C160.859 46.6436 157.572 47.2051 153.858 47.2051H135.434V0H153.858C157.572 0 160.859 0.561488 163.731 1.68446C166.604 2.80744 169.035 4.39832 171.026 6.45711C173.017 8.51589 174.526 10.9891 175.568 13.8901C176.611 16.7912 177.132 20.0264 177.132 23.6092ZM153.07 38.3951C158.013 38.3951 161.74 37.0983 164.239 34.478C166.737 31.8711 167.98 28.2482 167.98 23.6092C167.98 18.9703 166.737 15.3473 164.239 12.7404C161.74 10.1335 158.026 8.82338 153.07 8.82338H144.452V38.3951H153.07Z" fill="#1C1F3E"/>
</g>
<g id="Group_3">
<path id="Vector_7" d="M85.9204 57.5794V58.7959H80.9637V51.657H85.8269V52.8736H82.3532V54.5982H85.3593V55.7211H82.3532V57.5794H85.9204Z" fill="#1C1F3E"/>
<path id="Vector_8" d="M92.7209 58.7959V54.0768L90.8771 57.5928H90.129L88.2852 54.0768V58.7959H86.8958V51.657H88.3788L90.4897 55.7211L92.614 51.657H94.097V58.7959H92.7075H92.7209Z" fill="#1C1F3E"/>
<path id="Vector_9" d="M95.4864 58.7959V51.657H98.5059C98.8399 51.657 99.1338 51.7239 99.4144 51.8576C99.695 51.9912 99.9354 52.1784 100.136 52.4057C100.336 52.6329 100.497 52.887 100.603 53.1677C100.724 53.4484 100.777 53.7426 100.777 54.0233C100.777 54.3308 100.724 54.6249 100.617 54.9056C100.51 55.1864 100.363 55.4404 100.163 55.6677C99.9622 55.8949 99.735 56.0687 99.4545 56.2024C99.1739 56.3361 98.88 56.4029 98.546 56.4029H96.8626V58.7959H95.4731H95.4864ZM96.8759 55.1864H98.4792C98.733 55.1864 98.9468 55.0794 99.1205 54.8789C99.2941 54.6784 99.3743 54.3843 99.3743 54.0367C99.3743 53.8629 99.3476 53.6891 99.2941 53.5554C99.2407 53.4217 99.1739 53.288 99.0804 53.1944C99.0002 53.0875 98.8933 53.0206 98.7731 52.9672C98.6528 52.9137 98.5326 52.887 98.4124 52.887H96.8626V55.1997L96.8759 55.1864Z" fill="#1C1F3E"/>
<path id="Vector_10" d="M101.646 58.7959V51.657H104.799C105.133 51.657 105.427 51.7239 105.707 51.8576C105.988 51.9912 106.228 52.1784 106.429 52.4057C106.629 52.6329 106.789 52.887 106.896 53.1677C107.016 53.4484 107.07 53.7426 107.07 54.0233C107.07 54.4912 106.95 54.9056 106.722 55.28C106.495 55.6543 106.175 55.935 105.787 56.0955L107.417 58.7826H105.854L104.398 56.3896H103.035V58.7826H101.646V58.7959ZM103.035 55.1864H104.772C104.892 55.1864 105.012 55.1596 105.133 55.0928C105.253 55.026 105.333 54.9457 105.413 54.8522C105.493 54.7452 105.56 54.6249 105.6 54.4912C105.64 54.3441 105.667 54.1971 105.667 54.0367C105.667 53.8762 105.64 53.7158 105.587 53.5688C105.533 53.4217 105.467 53.3014 105.373 53.2078C105.28 53.1009 105.173 53.0206 105.066 52.9672C104.946 52.9137 104.825 52.887 104.705 52.887H103.035V55.1997V55.1864Z" fill="#1C1F3E"/>
<path id="Vector_11" d="M113.176 57.5794V58.7959H108.219V51.657H113.082V52.8736H109.608V54.5982H112.614V55.7211H109.608V57.5794H113.176Z" fill="#1C1F3E"/>
<path id="Vector_12" d="M119.108 57.5794V58.7959H114.151V51.657H119.014V52.8736H115.54V54.5982H118.546V55.7211H115.54V57.5794H119.108Z" fill="#1C1F3E"/>
<path id="Vector_13" d="M121.472 54.2238V58.7959H120.083V51.657H121.152L124.866 56.3361V51.657H126.255V58.7826H125.133L121.472 54.2105V54.2238Z" fill="#1C1F3E"/>
<path id="Vector_14" d="M127.658 58.7959V51.657H130.25C130.838 51.657 131.346 51.7506 131.786 51.9378C132.227 52.1249 132.588 52.3789 132.882 52.6998C133.176 53.0206 133.403 53.395 133.55 53.8361C133.697 54.2639 133.777 54.7318 133.777 55.2131C133.777 55.7612 133.697 56.2425 133.537 56.6837C133.376 57.1249 133.136 57.4992 132.829 57.8067C132.521 58.1141 132.147 58.3548 131.72 58.5286C131.292 58.7024 130.798 58.7826 130.263 58.7826H127.671L127.658 58.7959ZM132.361 55.2131C132.361 54.8655 132.308 54.558 132.214 54.2639C132.12 53.9698 131.987 53.7292 131.8 53.5153C131.626 53.3014 131.399 53.141 131.132 53.034C130.865 52.9271 130.571 52.8602 130.237 52.8602H129.034V57.566H130.237C130.571 57.566 130.878 57.4992 131.145 57.3789C131.412 57.2585 131.626 57.0981 131.813 56.8842C132 56.6703 132.12 56.4297 132.214 56.1356C132.308 55.8415 132.361 55.534 132.361 55.1997V55.2131Z" fill="#1C1F3E"/>
<path id="Vector_15" d="M134.739 58.7959V51.657H136.129V58.7959H134.739Z" fill="#1C1F3E"/>
<path id="Vector_16" d="M143.33 58.7959V54.0768L141.486 57.5928H140.738L138.894 54.0768V58.7959H137.505V51.657H138.988L141.099 55.7211L143.223 51.657H144.706V58.7959H143.316H143.33Z" fill="#1C1F3E"/>
<path id="Vector_17" d="M151.052 57.5794V58.7959H146.095V51.657H150.959V52.8736H147.485V54.5982H150.491V55.7211H147.485V57.5794H151.052Z" fill="#1C1F3E"/>
<path id="Vector_18" d="M153.43 54.2238V58.7959H152.041V51.657H153.11L156.824 56.3361V51.657H158.213V58.7826H157.091L153.43 54.2105V54.2238Z" fill="#1C1F3E"/>
<path id="Vector_19" d="M164.934 52.8736H162.649V58.7959H161.273V52.8736H158.988V51.657H164.92V52.8736H164.934Z" fill="#1C1F3E"/>
<path id="Vector_20" d="M168.434 58.836C167.913 58.836 167.432 58.7291 167.018 58.5286C166.59 58.328 166.23 58.0473 165.922 57.7131C165.615 57.3788 165.374 56.9911 165.214 56.55C165.054 56.1088 164.96 55.6676 164.96 55.2131C164.96 54.7586 165.054 54.2773 165.227 53.8495C165.401 53.4083 165.655 53.034 165.962 52.6998C166.27 52.3656 166.644 52.0982 167.071 51.8977C167.499 51.6971 167.966 51.6035 168.461 51.6035C168.955 51.6035 169.449 51.7105 169.877 51.9244C170.304 52.1383 170.665 52.4057 170.972 52.7533C171.28 53.0875 171.507 53.4885 171.681 53.9163C171.841 54.3575 171.934 54.7987 171.934 55.2398C171.934 55.7211 171.841 56.1757 171.667 56.6035C171.493 57.0313 171.253 57.4189 170.946 57.7532C170.638 58.0874 170.264 58.3548 169.837 58.5419C169.409 58.7425 168.942 58.836 168.447 58.836H168.434ZM166.363 55.2265C166.363 55.534 166.417 55.8281 166.51 56.1222C166.604 56.4163 166.737 56.6703 166.911 56.8842C167.085 57.1115 167.312 57.2853 167.566 57.4189C167.819 57.5526 168.113 57.6195 168.447 57.6195C168.781 57.6195 169.075 57.5526 169.342 57.4189C169.596 57.2853 169.823 57.0981 169.997 56.8708C170.171 56.6436 170.304 56.3896 170.398 56.0954C170.491 55.8013 170.532 55.5206 170.532 55.2265C170.532 54.9324 170.478 54.6249 170.385 54.3308C170.291 54.05 170.144 53.7826 169.97 53.5687C169.797 53.3415 169.57 53.1677 169.316 53.0474C169.062 52.9137 168.768 52.8468 168.447 52.8468C168.127 52.8468 167.819 52.9137 167.552 53.0474C167.285 53.1811 167.071 53.3682 166.898 53.5955C166.724 53.8228 166.59 54.0768 166.497 54.3575C166.403 54.6382 166.363 54.9324 166.363 55.2265Z" fill="#1C1F3E"/>
<path id="Vector_21" d="M177.132 53.5287C177.132 53.5287 176.998 53.4217 176.878 53.3415C176.758 53.2613 176.597 53.1811 176.424 53.1009C176.25 53.0206 176.05 52.9538 175.849 52.9003C175.649 52.8468 175.435 52.8201 175.221 52.8201C174.834 52.8201 174.553 52.887 174.366 53.034C174.179 53.1811 174.086 53.3682 174.086 53.6222C174.086 53.7693 174.126 53.8896 174.192 53.9832C174.259 54.0768 174.366 54.1704 174.5 54.2372C174.633 54.304 174.807 54.3709 175.007 54.4377C175.208 54.4912 175.448 54.5581 175.716 54.6249C176.063 54.7185 176.384 54.8254 176.664 54.9324C176.945 55.0393 177.185 55.173 177.386 55.3334C177.586 55.4939 177.733 55.681 177.84 55.9083C177.947 56.1356 178 56.4163 178 56.7372C178 57.1248 177.933 57.4457 177.786 57.7131C177.639 57.9804 177.452 58.2077 177.199 58.3681C176.958 58.5286 176.677 58.6623 176.357 58.7291C176.036 58.7959 175.702 58.8494 175.355 58.8494C174.82 58.8494 174.286 58.7692 173.765 58.6088C173.244 58.4484 172.776 58.2211 172.362 57.927L172.977 56.7372C172.977 56.7372 173.15 56.8708 173.297 56.9778C173.458 57.0714 173.645 57.1783 173.858 57.2719C174.072 57.3655 174.313 57.4457 174.567 57.5125C174.82 57.5794 175.101 57.6195 175.368 57.6195C176.13 57.6195 176.517 57.3789 176.517 56.8842C176.517 56.7238 176.477 56.6035 176.384 56.4965C176.29 56.3896 176.17 56.296 176.009 56.2158C175.849 56.1356 175.649 56.0554 175.422 55.9885C175.194 55.9217 174.941 55.8414 174.66 55.7612C174.313 55.6677 174.019 55.5607 173.765 55.4538C173.511 55.3468 173.311 55.2131 173.137 55.0661C172.977 54.919 172.843 54.7452 172.763 54.5447C172.683 54.3441 172.643 54.1169 172.643 53.8361C172.643 53.4752 172.709 53.1543 172.843 52.8736C172.977 52.5928 173.164 52.3522 173.404 52.165C173.645 51.9779 173.912 51.8308 174.233 51.7372C174.553 51.6437 174.887 51.5902 175.248 51.5902C175.756 51.5902 176.21 51.6704 176.637 51.8308C177.065 51.9913 177.426 52.1784 177.746 52.3923L177.132 53.5153V53.5287Z" fill="#1C1F3E"/>
</g>
</g>
</svg>
